<?xml version="1.0" standalone="no"?>
<!DOCTYPE svg PUBLIC "-//W3C//DTD SVG 20010904//EN"
 "http://www.w3.org/TR/2001/REC-SVG-20010904/DTD/svg10.dtd">
<svg version="1.0" xmlns="http://www.w3.org/2000/svg"
 width="2037.000000pt" height="1922.000000pt" viewBox="0 0 2037.000000 1922.000000"
 preserveAspectRatio="xMidYMid meet">

<g transform="translate(0.000000,1922.000000) scale(0.100000,-0.100000)"
fill="#000000" stroke="none">
<path d="M9470 17114 c-25 -2 -101 -8 -170 -14 -1130 -96 -2193 -597 -3002
-1416 -386 -390 -658 -772 -899 -1259 -267 -542 -416 -1069 -481 -1705 -16
-163 -16 -697 0 -860 65 -636 214 -1163 481 -1705 247 -500 539 -903 937
-1297 184 -182 296 -279 484 -422 614 -465 1342 -780 2091 -905 312 -53 472
-65 819 -65 437 0 766 38 1159 135 860 211 1643 657 2273 1295 182 184 279
296 422 484 140 185 366 534 366 566 0 5 -47 21 -105 35 l-105 26 -42 -71
c-422 -711 -1054 -1317 -1784 -1709 -578 -311 -1190 -487 -1864 -538 -195 -15
-647 -6 -830 16 -944 112 -1787 479 -2495 1086 -807 692 -1361 1666 -1539
2704 -52 309 -61 415 -61 795 0 379 8 477 61 795 154 914 609 1790 1279 2460
748 750 1687 1203 2755 1330 295 35 781 30 1105 -11 1310 -167 2503 -908 3237
-2009 55 -82 102 -151 103 -153 1 -2 31 6 66 17 35 11 83 25 107 31 l43 11
-22 37 c-193 320 -448 641 -735 924 -184 182 -296 279 -484 422 -707 534
-1516 853 -2420 951 -136 15 -646 28 -750 19z"/>
<path d="M8490 12595 l0 -1835 350 0 350 0 0 897 0 898 83 80 c169 163 356
235 574 221 216 -14 339 -92 402 -254 l26 -67 3 -887 3 -888 350 0 350 0 -3
1033 -3 1032 -27 96 c-105 384 -404 574 -873 556 -321 -12 -593 -124 -815
-334 l-70 -65 0 676 0 676 -350 0 -350 0 0 -1835z"/>
<path d="M14312 12559 c-108 -54 -162 -143 -162 -271 0 -67 4 -84 33 -139 22
-43 48 -75 81 -100 59 -45 104 -59 186 -59 82 0 127 14 186 59 33 25 59 57 81
100 29 55 33 72 33 140 0 67 -4 87 -31 139 -53 108 -143 162 -270 162 -65 0
-85 -4 -137 -31z"/>
<path d="M930 4500 l0 -1670 315 0 315 0 0 819 0 819 84 79 c91 87 203 151
311 178 125 32 325 16 424 -34 58 -30 126 -112 152 -184 l24 -62 3 -807 3
-808 315 0 315 0 -3 958 c-4 1073 2 995 -80 1162 -113 232 -362 360 -698 360
-295 -1 -597 -120 -787 -311 l-63 -63 0 617 0 617 -315 0 -315 0 0 -1670z"/>
<path d="M9120 4500 l0 -1670 315 0 315 0 0 152 0 151 70 -71 c252 -256 588
-348 945 -257 399 101 664 404 766 874 27 124 37 444 19 588 -67 534 -361 904
-806 1015 -116 29 -352 31 -456 5 -184 -46 -330 -128 -460 -259 l-78 -79 0
610 0 611 -315 0 -315 0 0 -1670z m1386 209 c238 -88 384 -313 401 -619 20
-373 -156 -659 -452 -735 -78 -20 -224 -20 -308 -1 -131 31 -279 114 -356 202
l-41 47 0 435 0 434 73 72 c75 75 176 135 285 171 114 37 289 34 398 -6z"/>
<path d="M15290 5580 l0 -330 -200 0 -200 0 0 -275 0 -275 200 0 200 0 0 -674
c0 -767 2 -791 70 -934 95 -200 275 -303 556 -319 188 -10 370 22 496 89 102
54 101 35 28 296 -35 125 -65 230 -67 234 -2 4 -27 -4 -56 -19 -74 -38 -205
-45 -265 -14 -23 12 -54 39 -68 60 -54 82 -54 88 -54 708 l0 573 245 0 245 0
0 275 0 275 -245 0 -245 0 0 330 0 330 -320 0 -320 0 0 -330z"/>
<path d="M8350 5291 c-102 -22 -201 -60 -295 -114 -93 -54 -135 -86 -227 -176
l-78 -76 0 163 0 162 -315 0 -315 0 0 -1210 0 -1210 315 0 315 0 0 804 0 804
65 60 c78 73 229 152 350 182 80 21 272 29 330 14 l25 -6 0 311 0 311 -42 -1
c-24 0 -81 -8 -128 -18z"/>
<path d="M13075 5299 c-307 -37 -636 -173 -813 -336 l-41 -38 117 -207 c64
-115 122 -208 128 -208 6 0 21 12 35 26 41 44 191 139 273 173 116 48 218 72
341 78 255 13 458 -76 539 -236 34 -66 46 -153 46 -339 l0 -153 -60 53 c-117
104 -260 172 -440 211 -125 28 -390 30 -492 4 -414 -103 -639 -396 -615 -802
18 -302 163 -523 432 -656 125 -62 229 -89 370 -96 282 -13 591 92 750 256 21
23 43 41 47 41 4 0 8 -54 8 -120 l0 -120 315 0 316 0 -3 873 -4 872 -26 96
c-93 341 -333 544 -724 614 -108 20 -389 27 -499 14z m320 -1404 c95 -26 196
-81 253 -137 l52 -52 0 -146 0 -146 -52 -52 c-58 -57 -158 -111 -258 -138 -83
-23 -293 -25 -365 -5 -173 49 -280 162 -292 310 -16 189 110 333 332 381 58
13 260 3 330 -15z"/>
<path d="M17996 5299 c-552 -64 -966 -446 -1071 -992 -26 -132 -30 -323 -11
-455 44 -297 157 -534 346 -723 221 -222 502 -339 848 -356 558 -26 1030 244
1233 707 186 423 149 927 -95 1294 -194 291 -491 470 -866 521 -113 16 -272
17 -384 4z m388 -589 c264 -87 432 -379 413 -715 -12 -204 -79 -367 -202 -491
-114 -114 -240 -164 -417 -165 -179 0 -298 48 -418 170 -121 122 -185 278
-197 477 -10 173 29 349 108 479 68 113 208 222 329 256 112 31 273 26 384
-11z"/>
<path d="M4030 4326 c0 -997 0 -996 53 -1138 76 -199 234 -333 462 -390 121
-30 377 -32 505 -4 212 46 393 140 553 286 l57 52 0 -151 0 -151 315 0 315 0
0 1210 0 1210 -315 0 -315 0 0 -819 0 -819 -58 -59 c-144 -146 -303 -214 -502
-214 -252 1 -381 91 -426 300 -11 53 -14 214 -14 839 l0 772 -315 0 -315 0 0
-924z"/>
</g>
</svg>
